<svg xmlns="http://www.w3.org/2000/svg" viewBox="0 0 1200 800" role="img" aria-labelledby="title description">
  <title id="title">Fly and rear-deltoid station illustration</title>
  <desc id="description">An original neutral line illustration of a dual-purpose supported strength station.</desc>
  <rect width="1200" height="800" rx="48" fill="#f1f3e8"/>
  <ellipse cx="600" cy="670" rx="390" ry="52" fill="#dee2d3"/>
  <g fill="none" stroke="#183329" stroke-linecap="round" stroke-linejoin="round">
    <path d="M335 651V208h129v443M736 651V208h129v443M303 651h195m204 0h196" stroke-width="31"/>
    <path d="M399 281h401M464 320l119 125m153-125L617 445" stroke-width="25"/>
    <path d="M522 539h157v73H522zM550 538V400h101v138" stroke-width="28"/>
    <path d="M583 445H421m196 0h162M421 413v65m358-65v65" stroke-width="21"/>
  </g>
  <circle cx="421" cy="445" r="17" fill="#d8ff77"/>
  <circle cx="779" cy="445" r="17" fill="#d8ff77"/>
</svg>
